<?xml version="1.0" encoding="utf-8"?>
<!-- Generator: Adobe Illustrator 25.0.1, SVG Export Plug-In . SVG Version: 6.00 Build 0)  -->
<svg version="1.1" id="圖層_1" xmlns="http://www.w3.org/2000/svg" xmlns:xlink="http://www.w3.org/1999/xlink" x="0px" y="0px"
	 viewBox="0 0 45 45" style="enable-background:new 0 0 45 45;" xml:space="preserve">
<g>
	<path d="M28.3,30.3c-0.1,0-0.1,0-0.2,0L22.2,29c0,0-0.1,0-0.1,0c-0.1,0-0.2-0.1-0.3-0.2c0,0-0.1-0.1-0.1-0.1h0c0,0,0,0,0,0
		c0,0,0,0,0,0l0,0h0c-0.1-0.1-0.1-0.1-0.1-0.2c0,0,0,0,0,0L16,17.3c-0.4,1.4-0.7,2.9-0.9,4.6l0,0.2l-3.4,6.8
		c-0.2,0.5-0.8,0.7-1.3,0.4c-0.5-0.2-0.7-0.8-0.4-1.3l3.3-6.5c0.4-2.8,1-5.3,1.7-7.2c0,0,0,0,0,0l0,0c0,0,0,0,0,0
		c1.5-3.9,3.3-5.4,4.7-5.9c1.1-0.5,2.3-0.5,3.4,0c0.5,0.2,0.7,0.8,0.5,1.3c-0.2,0.5-0.8,0.7-1.3,0.5c-0.3-0.1-0.9-0.3-1.8,0
		c-0.9,0.4-2.2,1.4-3.4,4.4l5.5,11.2l3.8-8.1c0,0,0,0,0,0l1.6-3.4c0.2-0.5,0.8-0.7,1.3-0.5c0.5,0.2,0.7,0.8,0.5,1.3l-1.3,2.7
		l3.5,2.8c0.4,0.3,0.5,1,0.1,1.4c-0.3,0.4-1,0.5-1.4,0.1l-3.1-2.5l-3.6,7.7l4.6,1c0.5,0.1,0.9,0.6,0.8,1.2
		C29.1,29.9,28.7,30.3,28.3,30.3z"/>
</g>
<g>
	<path d="M10.3,36.8C5.7,36.8,2,33,2,28.4s3.7-8.3,8.3-8.3c4.6,0,8.3,3.7,8.3,8.3S14.9,36.8,10.3,36.8z M10.3,23.1
		c-2.9,0-5.3,2.4-5.3,5.3s2.4,5.3,5.3,5.3c2.9,0,5.3-2.4,5.3-5.3S13.3,23.1,10.3,23.1z"/>
</g>
<g>
	<path d="M12.8,16.8l1.7-5.4H7l0.8,5.4H12.8z"/>
	<path d="M12.8,17.3h-5c-0.2,0-0.5-0.2-0.5-0.4l-0.8-5.4c0-0.1,0-0.3,0.1-0.4c0.1-0.1,0.2-0.2,0.4-0.2h7.5c0.2,0,0.3,0.1,0.4,0.2
		c0.1,0.1,0.1,0.3,0.1,0.4l-1.7,5.4C13.2,17.1,13.1,17.3,12.8,17.3z M8.3,16.3h4.2l1.4-4.4H7.6L8.3,16.3z"/>
</g>
<g>
	<path d="M32.8,14.5h-6.7c-0.8,0-1.5-0.7-1.5-1.5s0.7-1.5,1.5-1.5h6.7c0.8,0,1.5,0.7,1.5,1.5S33.7,14.5,32.8,14.5z"/>
</g>
<g>
	<path d="M35.3,36.8c-4.6,0-8.3-3.7-8.3-8.3s3.7-8.3,8.3-8.3c4.6,0,8.3,3.7,8.3,8.3S39.9,36.8,35.3,36.8z M35.3,23.1
		c-2.9,0-5.3,2.4-5.3,5.3s2.4,5.3,5.3,5.3c2.9,0,5.3-2.4,5.3-5.3S38.3,23.1,35.3,23.1z"/>
</g>
<g>
	<path d="M35.8,25.5c-2.3,3.3-5.7,4.2-7.1,4.2l3.7-6.2l4.6-0.8l4.6,2.9H35.8z"/>
	<path d="M28.7,31.2c-0.5,0-1-0.3-1.3-0.8c-0.3-0.5-0.3-1,0-1.5l3.8-6.3c0.2-0.4,0.6-0.6,1-0.7l4.6-0.8c0.4-0.1,0.8,0,1.1,0.2
		l4.6,2.9c0.6,0.4,0.8,1,0.6,1.7c-0.2,0.6-0.8,1.1-1.4,1.1h-5.1C33.9,30.3,30.4,31.2,28.7,31.2z M33.4,24.8L32,27.1
		c0.9-0.5,1.8-1.3,2.5-2.4c0,0,0-0.1,0.1-0.1L33.4,24.8z"/>
</g>
</svg>
