<?xml version="1.0" encoding="utf-8"?>
<!-- Generator: Adobe Illustrator 25.0.1, SVG Export Plug-In . SVG Version: 6.00 Build 0)  -->
<svg version="1.1" id="圖層_1" xmlns="http://www.w3.org/2000/svg" xmlns:xlink="http://www.w3.org/1999/xlink" x="0px" y="0px"
	 viewBox="0 0 45 45" style="enable-background:new 0 0 45 45;" xml:space="preserve">
<g>
	<path d="M27.6,38.3c-0.1,0-0.1,0-0.2,0l-5-1.1c0,0-0.1,0-0.1,0C22.1,37.1,22,37,22,37c-0.1,0-0.1-0.1-0.1-0.1l0,0c0,0,0,0,0,0
		c0,0,0,0,0,0c0,0,0,0,0,0c-0.1-0.1-0.1-0.1-0.1-0.2c0,0,0,0,0,0L17,27.3c-0.3,1.1-0.5,2.3-0.7,3.6l0,0.2L13.4,37
		c-0.2,0.5-0.8,0.7-1.3,0.4c-0.5-0.2-0.7-0.8-0.4-1.3l2.8-5.6c0.3-2.4,0.8-4.5,1.5-6.2c0,0,0,0,0,0c1.3-3.4,2.9-4.7,4.1-5.2
		c1-0.4,2.1-0.4,3,0c0.5,0.2,0.7,0.8,0.5,1.3s-0.8,0.7-1.3,0.5c-0.2-0.1-0.7-0.3-1.4,0c-1.1,0.4-2,1.7-2.8,3.6l4.6,9.3l3.1-6.7
		c0,0,0,0,0,0l1.4-2.9c0.2-0.5,0.8-0.7,1.3-0.5c0.5,0.2,0.7,0.8,0.5,1.3l-1,2.2l2.9,2.4c0.4,0.3,0.5,1,0.1,1.4
		c-0.3,0.4-1,0.5-1.4,0.1l-2.5-2.1L24,35.5l3.8,0.8c0.5,0.1,0.9,0.6,0.8,1.2C28.5,37.9,28,38.3,27.6,38.3z"/>
</g>
<g>
	<path d="M12.2,43.7c-4,0-7.2-3.2-7.2-7.2c0-4,3.2-7.2,7.2-7.2s7.2,3.2,7.2,7.2C19.3,40.5,16.1,43.7,12.2,43.7z M12.2,31.4
		c-2.8,0-5.2,2.3-5.2,5.2s2.3,5.2,5.2,5.2c2.8,0,5.2-2.3,5.2-5.2S15,31.4,12.2,31.4z"/>
</g>
<g>
	<path d="M14.3,26.5l1.4-4.7H9.3l0.7,4.7H14.3z"/>
	<path d="M14.3,27H10c-0.2,0-0.5-0.2-0.5-0.4l-0.7-4.7c0-0.1,0-0.3,0.1-0.4c0.1-0.1,0.2-0.2,0.4-0.2h6.4c0.2,0,0.3,0.1,0.4,0.2
		c0.1,0.1,0.1,0.3,0.1,0.4l-1.4,4.7C14.7,26.9,14.5,27,14.3,27z M10.4,26h3.5l1.1-3.7H9.9L10.4,26z"/>
</g>
<g>
	<path d="M31.5,24.8h-5.7c-0.8,0-1.5-0.7-1.5-1.5s0.7-1.5,1.5-1.5h5.7c0.8,0,1.5,0.7,1.5,1.5S32.3,24.8,31.5,24.8z"/>
</g>
<g>
	<path d="M33.7,43.7c-4,0-7.2-3.2-7.2-7.2c0-4,3.2-7.2,7.2-7.2c4,0,7.2,3.2,7.2,7.2C40.8,40.5,37.6,43.7,33.7,43.7z M33.7,31.4
		c-2.8,0-5.2,2.3-5.2,5.2s2.3,5.2,5.2,5.2s5.2-2.3,5.2-5.2S36.5,31.4,33.7,31.4z"/>
</g>
<g>
	<path d="M34,34c-2,2.9-4.9,3.6-6.1,3.6l3.2-5.4l3.9-0.7L39,34H34z"/>
	<path d="M27.9,38.6c-0.4,0-0.7-0.2-0.9-0.5s-0.2-0.7,0-1l3.2-5.4c0.1-0.2,0.4-0.4,0.7-0.5l3.9-0.7c0.2-0.1,0.5,0,0.7,0.1l3.9,2.5
		c0.4,0.2,0.5,0.7,0.4,1.1S39.5,35,39,35h-4.5C32.3,37.9,29.4,38.6,27.9,38.6z M31.8,33.1l-1.8,3c1-0.5,2.2-1.3,3.2-2.6
		c0.2-0.3,0.5-0.4,0.8-0.4h1.6l-0.7-0.5L31.8,33.1z"/>
</g>
<g>
	<path d="M17.5,18h1.9v-5.8h2.9c3.7,0,6.1-1.5,6.1-4.5c0-3.2-2.4-4.3-6.2-4.3h-4.7V18z M19.4,10.7V4.8H22c3,0,4.7,0.7,4.7,2.8
		c0,2.1-1.5,3-4.6,3H19.4z"/>
</g>
</svg>
