<?xml version="1.0" encoding="utf-8"?>
<!-- Generator: Adobe Illustrator 25.0.1, SVG Export Plug-In . SVG Version: 6.00 Build 0)  -->
<svg version="1.1" id="圖層_1" xmlns="http://www.w3.org/2000/svg" xmlns:xlink="http://www.w3.org/1999/xlink" x="0px" y="0px"
	 viewBox="0 0 45 45" style="enable-background:new 0 0 45 45;" xml:space="preserve">
<g>
	<g>
		<path d="M27.6,38.4c-0.1,0-0.1,0-0.2,0l-5-1.1c0,0-0.1,0-0.1,0c-0.1,0-0.2-0.1-0.3-0.2c-0.1,0-0.1-0.1-0.1-0.1l0,0c0,0,0,0,0,0
			c0,0,0,0,0,0c0,0,0,0,0,0c-0.1-0.1-0.1-0.1-0.1-0.2c0,0,0,0,0,0L17,27.5c-0.3,1.1-0.5,2.3-0.7,3.6l0,0.2l-2.9,5.9
			c-0.2,0.5-0.8,0.7-1.3,0.4c-0.5-0.2-0.7-0.8-0.4-1.3l2.8-5.6c0.3-2.4,0.8-4.5,1.5-6.2c0,0,0,0,0,0c1.3-3.4,2.9-4.7,4.1-5.2
			c1-0.4,2.1-0.4,3,0c0.5,0.2,0.7,0.8,0.5,1.3c-0.2,0.5-0.8,0.7-1.3,0.5c-0.2-0.1-0.7-0.3-1.4,0c-1.1,0.4-2,1.7-2.8,3.6l4.6,9.3
			l3.1-6.7c0,0,0,0,0,0l1.4-2.9c0.2-0.5,0.8-0.7,1.3-0.5c0.5,0.2,0.7,0.8,0.5,1.3l-1,2.2l2.9,2.4c0.4,0.3,0.5,1,0.1,1.4
			c-0.3,0.4-1,0.5-1.4,0.1l-2.5-2.1L24,35.6l3.8,0.8c0.5,0.1,0.9,0.6,0.8,1.2C28.5,38.1,28,38.4,27.6,38.4z"/>
	</g>
	<g>
		<path d="M12.2,43.9c-4,0-7.2-3.2-7.2-7.2s3.2-7.2,7.2-7.2s7.2,3.2,7.2,7.2S16.1,43.9,12.2,43.9z M12.2,31.5
			c-2.8,0-5.2,2.3-5.2,5.2s2.3,5.2,5.2,5.2c2.8,0,5.2-2.3,5.2-5.2S15,31.5,12.2,31.5z"/>
	</g>
	<g>
		<path d="M14.3,26.7l1.4-4.7H9.3l0.7,4.7H14.3z"/>
		<path d="M14.3,27.2H10c-0.2,0-0.5-0.2-0.5-0.4l-0.7-4.7c0-0.1,0-0.3,0.1-0.4c0.1-0.1,0.2-0.2,0.4-0.2h6.4c0.2,0,0.3,0.1,0.4,0.2
			c0.1,0.1,0.1,0.3,0.1,0.4l-1.4,4.7C14.7,27,14.5,27.2,14.3,27.2z M10.4,26.2h3.5l1.1-3.7H9.9L10.4,26.2z"/>
	</g>
	<g>
		<path d="M31.5,25h-5.7c-0.8,0-1.5-0.7-1.5-1.5S25,22,25.8,22h5.7c0.8,0,1.5,0.7,1.5,1.5S32.3,25,31.5,25z"/>
	</g>
	<g>
		<path d="M33.7,43.9c-4,0-7.2-3.2-7.2-7.2s3.2-7.2,7.2-7.2c4,0,7.2,3.2,7.2,7.2S37.6,43.9,33.7,43.9z M33.7,31.5
			c-2.8,0-5.2,2.3-5.2,5.2s2.3,5.2,5.2,5.2s5.2-2.3,5.2-5.2S36.5,31.5,33.7,31.5z"/>
	</g>
	<g>
		<path d="M34,34.2c-2,2.9-4.9,3.6-6.1,3.6l3.2-5.4l3.9-0.7l3.9,2.5H34z"/>
		<path d="M27.9,38.8c-0.4,0-0.7-0.2-0.9-0.5s-0.2-0.7,0-1l3.2-5.4c0.1-0.2,0.4-0.4,0.7-0.5l3.9-0.7c0.2,0,0.5,0,0.7,0.1l3.9,2.5
			c0.4,0.2,0.5,0.7,0.4,1.1s-0.5,0.7-1,0.7h-4.5C32.3,38,29.4,38.8,27.9,38.8z M31.8,33.3l-1.8,3c1-0.5,2.2-1.3,3.2-2.6
			c0.2-0.3,0.5-0.4,0.8-0.4h1.6l-0.7-0.5L31.8,33.3z"/>
	</g>
	<g>
		<path d="M21.6,2c0.4-0.8,1.5-0.8,1.8,0l1.8,4.1c0.1,0.3,0.5,0.5,0.8,0.6l4.5,0.5c0.9,0.1,1.2,1.2,0.6,1.7l-3.4,3
			c-0.3,0.2-0.4,0.6-0.3,1l0.9,4.4c0.2,0.8-0.7,1.5-1.5,1.1L23,16.2c-0.3-0.2-0.7-0.2-1,0l-3.9,2.3c-0.7,0.4-1.7-0.2-1.5-1.1
			l0.9-4.4c0.1-0.3,0-0.7-0.3-1l-3.4-3c-0.6-0.6-0.3-1.6,0.6-1.7l4.5-0.5c0.4,0,0.7-0.3,0.8-0.6L21.6,2z"/>
	</g>
</g>
</svg>
